# xmcd
#
# Track frame offsets: 
#        150
#        19214
#        58925
#        68177
#        120250
#        137615
#        164198
#        195662
#        209954
#
# Disc length: 2981 seconds
#
# Revision: 0
# Processed by: cddbd v1.5.2PL0 Copyright (c) Steve Scherf et al.
# Submitted via: ExactAudioCopy v1.0b3
#
DISCID=8e0ba309
DTITLE=Matt 'Guitar" Murphy  - Last Call
DYEAR=2011
DGENRE=Blues
TTITLE0=Sweet Home Chicago
TTITLE1=Stormy Monday
TTITLE2=Sissy Strut
TTITLE3=Blues Jam - (inst.)
TTITLE4=Born Under A Bad Sign
TTITLE5=Going Down
TTITLE6=You Got Me Running
TTITLE7=Soul Man
TTITLE8=Hey bartender
EXTD=
EXTT0=
EXTT1=
EXTT2=
EXTT3=
EXTT4=
EXTT5=
EXTT6=
EXTT7=
EXTT8=
PLAYORDER=
